<svg xmlns="http://www.w3.org/2000/svg" viewBox="0 0 175.41 228.67"><defs><style>.cls-1{fill:#e9c43e;}</style></defs><g id="Calque_2" data-name="Calque 2"><g id="Calque_1-2" data-name="Calque 1"><path class="cls-1" d="M64.68,228.43c75.21-6.39,111-56.16,110.73-112.51S132.77,1.09,59.19,1.37H0V228.43S31.58,229,64.68,228.43Zm61.38-99.8H115l-9.27-33.26,19.91-33.18Zm.12,17.82.15,22.9L120,146.45ZM62,94.54l12.68-54.4L90,95,75.72,118.68Zm3.63,34.09H54L57.4,114.2ZM95,113.18l4.3,15.45H85.75Zm5.62-36L85.29,22.1A98.37,98.37,0,0,1,122.7,40.42ZM59.19,18.93c2.12,0,4.21.08,6.29.19L52,77,19,18.93ZM13.51,37.08l33.9,59.57-7.45,32H13.51Zm0,109.37H35.8L21.11,209.5h-7.6ZM35.18,209.5l14.7-63.05h54.41L117,192.18c-16,10.93-35.87,17.32-57.85,17.32ZM140.05,170l-.16-23.53h12.65A92.79,92.79,0,0,1,140.05,170Zm-.28-41.35-.47-71.22a93.83,93.83,0,0,1,18.77,56.81A97.66,97.66,0,0,1,157,128.63Z"/></g></g></svg>